<?xml version="1.0" standalone="no"?>
<!DOCTYPE svg PUBLIC "-//W3C//DTD SVG 20010904//EN"
 "http://www.w3.org/TR/2001/REC-SVG-20010904/DTD/svg10.dtd">
<svg version="1.0" xmlns="http://www.w3.org/2000/svg"
 width="32.000000pt" height="32.000000pt" viewBox="0 0 32.000000 32.000000"
 preserveAspectRatio="xMidYMid meet">

<g transform="translate(0.000000,32.000000) scale(0.100000,-0.100000)"
fill="#000000" stroke="none">
<path d="M20 209 c0 -33 5 -69 10 -80 8 -15 7 -19 -4 -19 -27 0 -29 -22 -5
-41 36 -28 213 -27 249 1 26 20 22 34 -15 43 -19 4 -18 5 2 6 31 1 65 48 61
85 -5 49 -51 67 -157 63 l-86 -3 93 -2 c85 -2 92 -4 92 -22 0 -19 -2 -20 -30
-5 -37 19 -53 19 -92 -1 -28 -15 -34 -15 -71 2 -38 18 -39 19 -16 25 24 7 23
7 -3 8 -28 1 -28 0 -28 -60z m121 16 c34 16 41 16 76 2 43 -17 55 -52 30 -91
-12 -18 -25 -23 -61 -24 -38 0 -46 3 -46 18 0 20 35 50 58 50 10 0 13 -8 10
-25 -3 -14 -1 -25 3 -25 5 0 9 14 9 30 0 25 -4 30 -25 30 -14 0 -34 -9 -46
-21 -15 -15 -24 -18 -32 -10 -6 6 -20 11 -30 11 -16 0 -18 -6 -15 -30 3 -17 1
-30 -3 -30 -18 0 -39 47 -39 87 l0 42 37 -15 c33 -14 40 -14 74 1z m167 -8 c6
-31 -7 -66 -29 -78 -17 -9 -20 -8 -13 2 4 8 7 28 5 46 -1 21 2 33 9 33 9 0 11
-10 6 -32 -4 -24 -3 -29 4 -18 15 23 12 48 -7 60 -17 10 -16 10 2 8 11 -2 21
-11 23 -21z m-188 -71 c0 -2 3 -11 6 -20 9 -24 -23 -20 -36 4 -9 17 -8 20 10
20 11 0 20 -2 20 -4z m155 -56 c4 -6 -42 -10 -129 -10 -84 0 -136 4 -136 10 0
13 257 13 265 0z m-72 -27 c-29 -2 -78 -2 -110 0 -32 2 -8 3 52 3 61 0 87 -1
58 -3z"/>
</g>
</svg>
